<svg width="40" height="40" viewBox="0 0 40 40" xmlns="http://www.w3.org/2000/svg" xmlns:xlink="http://www.w3.org/1999/xlink">
    <defs>
        <path id="a" d="M0 0h32v32H0z"/>
        <path id="c" d="M0 0h10v10H0z"/>
    </defs>
    <g fill="none" fill-rule="evenodd">
        <path d="M6.808 15.483 4.243 18.48c-.324.38-.324.995 0 1.376l3.301 3.858a.75.75 0 0 0 1.177 0l6.034-7.054c.53-.622.142-1.683-.61-1.66l-6.77.197a.783.783 0 0 0-.567.285M24.517 33.192l-2.998 2.565c-.38.324-.995.324-1.376 0l-3.858-3.301a.75.75 0 0 1 0-1.177l7.054-6.034c.622-.53 1.683-.142 1.66.61l-.197 6.77a.783.783 0 0 1-.285.567M11.292 28.708 7.084 24.5c-.601 1.804-.584 4.06-.584 4.06l2.47 2.47 2.47 2.47s2.256.017 4.06-.584l-4.208-4.208z" fill="#6C51B7"/>
        <g transform="translate(7 1)">
            <mask id="b" fill="#fff">
                <use xlink:href="#a"/>
            </mask>
            <path d="M30.98 0c-3.009.06-12.092.807-18.675 7.39a79.385 79.385 0 0 0-6.831 7.814C1.884 19.888 0 23.387 0 23.387L4 28l4.613 4s3.499-1.884 8.183-5.474a79.384 79.384 0 0 0 7.814-6.831C31.193 13.113 31.941 4.029 32 1.02A.994.994 0 0 0 30.98 0z" fill="#9388E5" mask="url(#b)"/>
        </g>
        <path d="M25.5 18a3.5 3.5 0 1 0 0-7 3.5 3.5 0 0 0 0 7" fill="#FCF8FF"/>
        <g transform="translate(1 29)">
            <mask id="d" fill="#fff">
                <use xlink:href="#c"/>
            </mask>
            <path d="M9.998 4.432c-.07-2.379-2.051-4.36-4.43-4.43C4.614-.026 3.6.233 2.736 1.097.269 3.563 0 10 0 10s6.437-.27 8.903-2.736c.864-.864 1.123-1.878 1.095-2.832" fill="#FF7BAC" mask="url(#d)"/>
        </g>
    </g>
</svg>
