<svg width="48" height="48" viewBox="0 0 48 48" xmlns="http://www.w3.org/2000/svg">
    <g transform="translate(5 1)" fill="none" fill-rule="evenodd">
        <rect fill="#FF925E" y="7" width="38" height="38" rx="1"/>
        <g transform="translate(8 19)">
            <path d="M21.735 14.256c.336.336.34.88.01 1.222l-1.514 1.517 1.514 1.516A.873.873 0 0 1 21.129 20a.87.87 0 0 1-.616-.256L19 18.228l-1.513 1.516a.87.87 0 0 1-1.42-.283.873.873 0 0 1 .188-.95l1.513-1.516-1.514-1.517a.873.873 0 0 1 .01-1.222.87.87 0 0 1 1.222-.011L19 15.76l1.514-1.516a.87.87 0 0 1 1.221.01zM5.734.256c.336.336.341.88.011 1.222L4.231 2.994l1.514 1.517A.873.873 0 0 1 5.129 6a.87.87 0 0 1-.615-.256L3 4.228 1.486 5.744a.87.87 0 0 1-1.42-.283.873.873 0 0 1 .189-.95l1.513-1.517L.255 1.478A.873.873 0 0 1 .265.256.87.87 0 0 1 1.487.245L3 1.76 4.514.245a.87.87 0 0 1 1.22.01z" fill="#FFF" fill-rule="nonzero"/>
            <circle stroke="#FFF" stroke-width="1.5" cx="3" cy="17" r="2.25"/>
            <path d="M5 17h3.913a1 1 0 0 0 1-1v-5.501a1 1 0 0 1 1-1H19a1 1 0 0 0 1-1V2" stroke="#FFF" stroke-width="1.5"/>
            <path stroke="#FFF" stroke-width="1.5" stroke-linecap="round" d="m18 3 2.001-2L22 3"/>
        </g>
        <path d="M28.75 12h-21c-.414 0-.75-.358-.75-.8V7.101c.001-1.27.966-2.298 2.156-2.3H14.5c.001-1.345.53-2.628 1.46-3.538.929-.917 2.18-1.369 3.44-1.242 2.294.28 4.043 2.32 4.1 4.78h5.348c1.188.004 2.15 1.032 2.152 2.3v4.1c0 .44-.336.799-.75.799h-1.5z" fill="#FFCF4A" fill-rule="nonzero" opacity=".704"/>
    </g>
</svg>
