<svg width="48" height="48" viewBox="0 0 48 48" xmlns="http://www.w3.org/2000/svg">
    <g fill="none" fill-rule="evenodd">
        <path d="M0 1h47v47H0z"/>
        <path d="M24.027 46.531c-.147 0-.294-.02-.435-.06-5.648-1.591-10.484-4.685-13.985-8.948-3.5-4.262-5.351-9.309-5.351-14.594V9.784c0-.713.647-1.291 1.446-1.291 4.179 0 7.978-2.045 9.923-5.336.25-.423.743-.688 1.28-.688h14.244c.537 0 1.03.265 1.28.688 1.946 3.291 5.745 5.336 9.914 5.336.8 0 1.456.578 1.456 1.29V22.93c0 5.285-1.85 10.332-5.352 14.594-3.5 4.263-8.336 7.357-13.984 8.948-.142.04-.289.06-.436.06z" fill="#5DD143" fill-rule="nonzero"/>
        <path d="M32.43 3.157c-.251-.423-.744-.688-1.28-.688h-7.123V46.53c.147 0 .294-.02.436-.06 5.648-1.591 10.483-4.685 13.984-8.948 3.501-4.262 5.352-9.309 5.352-14.594V9.784c0-.713-.657-1.291-1.456-1.291-4.17 0-7.968-2.045-9.914-5.336z" fill="#57CD42" fill-rule="nonzero"/>
        <path d="M28.076 6.503h-8.098c-.745 0-1.46.302-1.953.84-1.904 2.08-4.43 3.626-7.306 4.47-1.058.31-1.806 1.233-1.806 2.31v8.807c0 8.393 5.577 15.874 14.163 19.069a2.73 2.73 0 0 0 1.902 0c8.586-3.195 14.164-10.676 14.164-19.07v-8.805c0-1.078-.748-2-1.807-2.31-2.876-.844-5.401-2.391-7.305-4.47a2.648 2.648 0 0 0-1.954-.841z" fill="#F5F5FF" fill-rule="nonzero"/>
        <path d="M21.892 30c-.429 0-.858-.154-1.185-.463l-5.216-4.92a1.518 1.518 0 0 1 0-2.235 1.749 1.749 0 0 1 2.37 0l4.031 3.8 9.246-8.719a1.749 1.749 0 0 1 2.371 0 1.518 1.518 0 0 1 0 2.236l-10.431 9.838a1.724 1.724 0 0 1-1.186.463z" fill="#3A9C06" fill-rule="nonzero"/>
    </g>
</svg>
