<svg width="40" height="40" viewBox="0 0 40 40" xmlns="http://www.w3.org/2000/svg" xmlns:xlink="http://www.w3.org/1999/xlink">
    <defs>
        <path id="a" d="M0 0h33v38H0z"/>
    </defs>
    <g fill="none" fill-rule="evenodd">
        <g transform="translate(3 1)">
            <mask id="b" fill="#fff">
                <use xlink:href="#a"/>
            </mask>
            <path d="M33 15.114C33 6.767 26.22 0 17.856 0 9.896 0 3.384 6.133 2.773 13.92l-.06-.102S2.285 19.786.23 23.336c-.663 1.146.18 2.573 1.506 2.573h1.841v4.86c0 .655.531 1.186 1.187 1.186h4.87V38h19.038V25.681A15.041 15.041 0 0 0 33 15.114" fill="#D3DCEE" mask="url(#b)"/>
        </g>
        <path d="M32 16c0 6.076-4.924 11-11 11s-11-4.924-11-11S14.924 5 21 5s11 4.924 11 11" fill="#35C1D8"/>
        <path d="M24.004 16.531c-.33-.471-.932-.843-1.807-1.117l-.604-.195-.778-.251c-.445-.137-.722-.29-.828-.457a.938.938 0 0 1-.162-.512c0-.248.1-.468.3-.66.2-.193.483-.29.852-.29.226 0 .427.06.616.148.068.03.139.053.201.095.238.162.365.404.38.726h2.21c0-.384-.084-.748-.253-1.089a2.741 2.741 0 0 0-.69-.884 3.118 3.118 0 0 0-1.049-.577 3.93 3.93 0 0 0-.8-.166V10h-1.816v1.45c-.014.003-.029.004-.043.009-.415.13-.775.319-1.082.568a2.76 2.76 0 0 0-.76.884c-.184.34-.276.71-.276 1.107 0 .633.21 1.17.633 1.61.38.396.893.7 1.528.92.072.026.137.054.21.076l1.128.335c.186.057.341.12.479.184.192.092.344.191.443.3a.96.96 0 0 1 .253.67.857.857 0 0 1-.403.754c-.092.062-.193.098-.293.139a1.621 1.621 0 0 1-.616.131c-.446 0-.757-.112-.933-.335a1.648 1.648 0 0 1-.268-.515c-.023-.07-.052-.138-.066-.211H17.5c.014.472.123.885.322 1.238.2.354.46.649.783.884.345.259.738.443 1.171.564V22h1.817v-1.121c.283-.036.556-.09.81-.178.431-.15.8-.354 1.107-.614.306-.26.548-.562.725-.903a2.38 2.38 0 0 0 .265-1.108 2.64 2.64 0 0 0-.496-1.545" fill="#FFF"/>
    </g>
</svg>
